<svg xmlns="http://www.w3.org/2000/svg" xmlns:xlink="http://www.w3.org/1999/xlink" version="1.0" x="0px" y="0px" width="100px" height="100px" viewBox="0 0 100 100" enable-background="new 0 0 100 100" xml:space="preserve">
<g id="Captions">
</g>
<g id="Your_Icon">
	<g>
		<path fill="#000000" d="M66.665,0h-1.599h-4.923h-1.807H21.91c-6.335,0-11.495,5.155-11.495,11.491v77.018    c0,6.335,5.16,11.491,11.495,11.491H78.09c6.335,0,11.495-5.155,11.495-11.491V29.167v-2.706v-4.142v-1.485L66.665,0z     M66.665,8.333l14.585,12.5H69.824c-1.744,0-3.16-1.416-3.16-3.158V8.333z M81.25,88.509c0,1.741-1.416,3.158-3.16,3.158H21.91    c-1.744,0-3.16-1.416-3.16-3.158V11.491c0-1.741,1.416-3.158,3.16-3.158h36.426v1.278v8.065c0,6.335,5.153,11.491,11.489,11.491    H81.25V88.509z"/>
		<g>
			
				<rect x="40.502" y="53.58" transform="matrix(0.7071 -0.7071 0.7071 0.7071 -26.4742 55.7389)" fill="#000000" width="27.086" height="12.494"/>
			<polygon fill="#000000" points="34.045,79.83 38.635,78.296 35.573,75.236    "/>
			<path fill="#000000" d="M71.022,51.68c2.439-2.437,2.439-6.392,0-8.83c-2.441-2.441-6.396-2.441-8.83,0l-1.477,1.477l8.83,8.83     L71.022,51.68z"/>
			<polygon fill="#000000" points="38.574,66.463 36.497,73.218 40.82,77.531 47.41,75.297 47.412,75.293 38.576,66.459    "/>
		</g>
	</g>
</g>
</svg>